HIERARCHY
ROOT hip
{
  OFFSET 7.01287 93.5411 25.8338
  CHANNELS 6 Xposition Yposition Zposition Zrotation Xrotation Yrotation
  JOINT abdomen
  {
    OFFSET 0 7.2397 0
    CHANNELS 6 Xposition Yposition Zposition Zrotation Xrotation Yrotation
    JOINT chest
    {
      OFFSET 0 16.546 0
      CHANNELS 6 Xposition Yposition Zposition Zrotation Xrotation Yrotation
      JOINT neck
      {
        OFFSET 0 34.2149 0
        CHANNELS 6 Xposition Yposition Zposition Zrotation Xrotation Yrotation
        JOINT head
        {
          OFFSET 0 6.2923 0
          CHANNELS 6 Xposition Yposition Zposition Zrotation Xrotation Yrotation
          End Site
          {
            OFFSET 0 21.2161 0
          }
        }
      }
      JOINT lCollar
      {
        OFFSET 4.0639 26.6115 -1.1234
        CHANNELS 6 Xposition Yposition Zposition Zrotation Xrotation Yrotation
        JOINT lShldr
        {
          OFFSET 14.1772 0 0
          CHANNELS 6 Xposition Yposition Zposition Zrotation Xrotation Yrotation
          JOINT lForeArm
          {
            OFFSET 26.1234 0 0
            CHANNELS 6 Xposition Yposition Zposition Zrotation Xrotation Yrotation
            JOINT lHand
            {
              OFFSET 27.7188 0 0
              CHANNELS 6 Xposition Yposition Zposition Zrotation Xrotation Yrotation
              JOINT lThumb1
              {
                OFFSET 2.2979 -0.4685 1.8313
                CHANNELS 6 Xposition Yposition Zposition Zrotation Xrotation Yrotation
                JOINT lThumb2
                {
                  OFFSET 5.2953 0 0
                  CHANNELS 6 Xposition Yposition Zposition Zrotation Xrotation Yrotation
                  JOINT lThumb3
                  {
                    OFFSET 3.0181 0 0
                    CHANNELS 6 Xposition Yposition Zposition Zrotation Xrotation Yrotation
                    End Site
                    {
                      OFFSET 2.6294 0 0
                    }
                  }
                }
              }
              JOINT lIndex1
              {
                OFFSET 9.3793 0.2991 2.5924
                CHANNELS 6 Xposition Yposition Zposition Zrotation Xrotation Yrotation
                JOINT lIndex2
                {
                  OFFSET 4.3461 0 0
                  CHANNELS 6 Xposition Yposition Zposition Zrotation Xrotation Yrotation
                  JOINT lIndex3
                  {
                    OFFSET 2.1666 0 0
                    CHANNELS 6 Xposition Yposition Zposition Zrotation Xrotation Yrotation
                    End Site
                    {
                      OFFSET 2.2048 0 0
                    }
                  }
                }
              }
              JOINT lMid1
              {
                OFFSET 9.4769 0.8376 0.2947
                CHANNELS 6 Xposition Yposition Zposition Zrotation Xrotation Yrotation
                JOINT lMid2
                {
                  OFFSET 4.772 0 0
                  CHANNELS 6 Xposition Yposition Zposition Zrotation Xrotation Yrotation
                  JOINT lMid3
                  {
                    OFFSET 2.8722 0 0
                    CHANNELS 6 Xposition Yposition Zposition Zrotation Xrotation Yrotation
                    End Site
                    {
                      OFFSET 2.0959 0 0
                    }
                  }
                }
              }
              JOINT lRing1
              {
                OFFSET 8.6586 1.0176 -1.7016
                CHANNELS 6 Xposition Yposition Zposition Zrotation Xrotation Yrotation
                JOINT lRing2
                {
                  OFFSET 4.5461 0 0
                  CHANNELS 6 Xposition Yposition Zposition Zrotation Xrotation Yrotation
                  JOINT lRing3
                  {
                    OFFSET 2.506 0 0
                    CHANNELS 6 Xposition Yposition Zposition Zrotation Xrotation Yrotation
                    End Site
                    {
                      OFFSET 2.2023 0 0
                    }
                  }
                }
              }
              JOINT lPinky1
              {
                OFFSET 7.6901 0.6618 -3.9096
                CHANNELS 6 Xposition Yposition Zposition Zrotation Xrotation Yrotation
                JOINT lPinky2
                {
                  OFFSET 3.2119 0 0
                  CHANNELS 6 Xposition Yposition Zposition Zrotation Xrotation Yrotation
                  JOINT lPinky3
                  {
                    OFFSET 1.924 0 0
                    CHANNELS 6 Xposition Yposition Zposition Zrotation Xrotation Yrotation
                    End Site
                    {
                      OFFSET 1.7829 0 0
                    }
                  }
                }
              }
            }
          }
        }
      }
      JOINT rCollar
      {
        OFFSET -4.0677 26.6109 -1.1234
        CHANNELS 6 Xposition Yposition Zposition Zrotation Xrotation Yrotation
        JOINT rShldr
        {
          OFFSET -14.1772 0 0
          CHANNELS 6 Xposition Yposition Zposition Zrotation Xrotation Yrotation
          JOINT rForeArm
          {
            OFFSET -26.1234 0 0
            CHANNELS 6 Xposition Yposition Zposition Zrotation Xrotation Yrotation
            JOINT rHand
            {
              OFFSET -27.7188 0 0
              CHANNELS 6 Xposition Yposition Zposition Zrotation Xrotation Yrotation
              JOINT rThumb1
              {
                OFFSET -2.2979 -0.4684 1.8313
                CHANNELS 6 Xposition Yposition Zposition Zrotation Xrotation Yrotation
                JOINT rThumb2
                {
                  OFFSET -5.2953 0 0
                  CHANNELS 6 Xposition Yposition Zposition Zrotation Xrotation Yrotation
                  JOINT rThumb3
                  {
                    OFFSET -3.0181 0 0
                    CHANNELS 6 Xposition Yposition Zposition Zrotation Xrotation Yrotation
                    End Site
                    {
                      OFFSET -2.6294 0 0
                    }
                  }
                }
              }
              JOINT rIndex1
              {
                OFFSET -9.3793 0.2991 2.5924
                CHANNELS 6 Xposition Yposition Zposition Zrotation Xrotation Yrotation
                JOINT rIndex2
                {
                  OFFSET -4.3461 0 0
                  CHANNELS 6 Xposition Yposition Zposition Zrotation Xrotation Yrotation
                  JOINT rIndex3
                  {
                    OFFSET -2.1666 0 0
                    CHANNELS 6 Xposition Yposition Zposition Zrotation Xrotation Yrotation
                    End Site
                    {
                      OFFSET -2.2048 0 0
                    }
                  }
                }
              }
              JOINT rMid1
              {
                OFFSET -9.4769 0.8376 0.2947
                CHANNELS 6 Xposition Yposition Zposition Zrotation Xrotation Yrotation
                JOINT rMid2
                {
                  OFFSET -4.772 0 0
                  CHANNELS 6 Xposition Yposition Zposition Zrotation Xrotation Yrotation
                  JOINT rMid3
                  {
                    OFFSET -2.8722 0 0
                    CHANNELS 6 Xposition Yposition Zposition Zrotation Xrotation Yrotation
                    End Site
                    {
                      OFFSET -2.0959 0 0
                    }
                  }
                }
              }
              JOINT rRing1
              {
                OFFSET -8.6586 1.0176 -1.7016
                CHANNELS 6 Xposition Yposition Zposition Zrotation Xrotation Yrotation
                JOINT rRing2
                {
                  OFFSET -4.5461 0 0
                  CHANNELS 6 Xposition Yposition Zposition Zrotation Xrotation Yrotation
                  JOINT rRing3
                  {
                    OFFSET -2.506 0 0
                    CHANNELS 6 Xposition Yposition Zposition Zrotation Xrotation Yrotation
                    End Site
                    {
                      OFFSET -2.2023 0 0
                    }
                  }
                }
              }
              JOINT rPinky1
              {
                OFFSET -7.6901 0.6618 -3.9096
                CHANNELS 6 Xposition Yposition Zposition Zrotation Xrotation Yrotation
                JOINT rPinky2
                {
                  OFFSET -3.2119 0 0
                  CHANNELS 6 Xposition Yposition Zposition Zrotation Xrotation Yrotation
                  JOINT rPinky3
                  {
                    OFFSET -1.924 0 0
                    CHANNELS 6 Xposition Yposition Zposition Zrotation Xrotation Yrotation
                    End Site
                    {
                      OFFSET -1.7829 0 0
                    }
                  }
                }
              }
            }
          }
        }
      }
    }
  }
  JOINT lThigh
  {
    OFFSET 8.7379 -0.0029 0.0005
    CHANNELS 6 Xposition Yposition Zposition Zrotation Xrotation Yrotation
    JOINT lShin
    {
      OFFSET 0 -46.6676 0
      CHANNELS 6 Xposition Yposition Zposition Zrotation Xrotation Yrotation
      JOINT lFoot
      {
        OFFSET 0 -40.1476 0
        CHANNELS 6 Xposition Yposition Zposition Zrotation Xrotation Yrotation
        JOINT lToes
        {
          OFFSET 0 -8.8846 14.2294
          CHANNELS 6 Xposition Yposition Zposition Zrotation Xrotation Yrotation
          End Site
          {
            OFFSET 0 0 6.296
          }
        }
      }
    }
  }
  JOINT rThigh
  {
    OFFSET -8.7379 0.0029 -0.0005
    CHANNELS 6 Xposition Yposition Zposition Zrotation Xrotation Yrotation
    JOINT rShin
    {
      OFFSET 0 -46.6676 0
      CHANNELS 6 Xposition Yposition Zposition Zrotation Xrotation Yrotation
      JOINT rFoot
      {
        OFFSET 0 -40.1476 0
        CHANNELS 6 Xposition Yposition Zposition Zrotation Xrotation Yrotation
        JOINT rToes
        {
          OFFSET 0 -8.8846 14.2294
          CHANNELS 6 Xposition Yposition Zposition Zrotation Xrotation Yrotation
          End Site
          {
            OFFSET 0 0 6.296
          }
        }
      }
    }
  }
}
MOTION
Frames:	4
Frame Time:	0.0333333
7.01287 93.5411 25.8338 -3.40753 -5.54785 -32.0474 0 7.2397 0 1.15803 2.46403 -2.74395 0 16.546 0 2.46605 6.73025 -5.76108 0 34.2149 -3.55271e-15 -3.973 25.6901 7.94108 7.10543e-15 6.2923 7.10543e-15 -9.18337 -25.3406 30.3832 4.0639 26.6115 -1.1234 -3.02672 -4.52772 8.50484 14.1772 2.84217e-14 -7.10543e-15 -34.7547 30.2765 -40.1829 26.1234 0 4.44089e-15 -0.598996 0.242441 -44.0698 27.7188 0 1.06581e-14 -117.226 -47.8458 -103.293 2.2979 -0.4685 1.8313 63.0603 58.4227 -87.038 5.2953 1.42109e-14 1.42109e-14 -1.04869 5.70473 -1.21726 3.0181 1.42109e-14 7.10543e-15 15.52 1.63981 1.02981 9.3793 0.2991 2.5924 -17.6297 -1.6033 2.83106 4.3461 -2.84217e-14 0 -22.4944 -0.713508 4.97547 2.1666 -7.10543e-15 -1.42109e-14 -13.4244 -0.338429 2.47145 9.4769 0.8376 0.2947 -17.4757 -4.39559 2.83518 4.772 0 -1.42109e-14 -22.2066 -1.09773 6.04747 2.8722 -1.42109e-14 0 -7.163 -0.0149607 3.47451 8.6586 1.0176 -1.7016 -17.8227 2.29987 2.83223 4.5461 0 -1.42109e-14 -22.7804 -0.698834 3.46739 2.506 0 1.42109e-14 -4.63804 0.0329127 1.77691 7.6901 0.6618 -3.9096 -15.8172 -8.88829 6.91765 3.2119 0 0 -23.0631 -0.0309107 4.23899 1.924 0 0 -6.41453 -0.0694862 3.97696 -4.0677 26.6109 -1.1234 0.258105 -0.903076 11.4233 -14.1772 -2.84217e-14 -3.55271e-15 54.9189 36.544 -10.5793 -26.1234 0 7.10543e-15 0.833269 1.07832 104.614 -27.7188 0 0 15.5339 -12.7107 -22.669 -2.2979 -0.4684 1.8313 -52.5884 66.7177 72.38 -5.2953 -1.42109e-14 -1.77636e-15 25.5504 -4.97209 -8.3879 -3.0181 0 5.32907e-15 -5.2269 -2.02624 -5.94762 -9.3793 0.2991 2.5924 42.7529 -3.91472 -7.47395 -4.3461 -3.55271e-15 0 47.6694 -4.0177 -9.70015 -2.1666 0 0 26.0767 -1.29503 -5.14398 -9.4769 0.8376 0.2947 42.3868 -6.68734 -7.50779 -4.772 3.55271e-15 0 46.948 -5.05221 -11.8068 -2.8722 0 -1.42109e-14 19.6648 -0.822946 -6.87342 -8.6586 1.0176 -1.7016 43.2608 -0.0398714 -7.45642 -4.5461 3.55271e-15 0 48.3695 -3.03714 -6.7563 -2.506 0 -1.42109e-14 17.4765 -0.353737 -3.77041 -7.6901 0.6618 -3.9096 41.772 -11.2668 -7.6038 -3.2119 -7.10543e-15 0 45.5034 -6.43631 -15.2727 -1.924 0 0 18.5713 -1.04243 -8.37931 8.7379 -0.0029 0.0005 14.1878 -9.51148 25.8614 -3.55271e-15 -46.6676 0 2.43336 16.8921 9.75058 -3.55271e-15 -40.1476 0 -6.41153 5.14811 9.02478 3.55271e-15 -8.8846 14.2294 0.0001 -1.36664e-16 -0 -8.7379 0.0029 -0.0005 -9.03505 1.6667 -23.4267 0 -46.6676 0 -13.0203 20.5525 7.04656 -2.66454e-15 -40.1476 -8.88178e-16 17.4211 -13.0411 -6.0834 1.77636e-15 -8.8846 14.2294 -9.93923e-17 1.98785e-16 -0 
7.01745 93.5279 25.8519 -3.47857 -5.597 -32.0731 0 7.2397 3.55271e-15 1.1494 2.49921 -2.75449 0 16.546 3.55271e-15 2.43787 6.80123 -5.77964 7.10543e-15 34.2149 0 -3.92383 25.6756 7.9234 0 6.2923 -1.42109e-14 -9.18919 -25.394 30.3725 4.0639 26.6115 -1.1234 -2.96192 -4.52117 8.47169 14.1772 0 0 -34.9624 30.279 -40.2754 26.1234 0 2.66454e-15 -0.597391 0.240881 -43.9208 27.7188 0 0 -118.021 -47.9599 -104.381 2.2979 -0.4685 1.8313 63.0547 58.4298 -87.0294 5.2953 0 1.42109e-14 -1.05672 5.70194 -1.2133 3.0181 0 -7.10543e-15 15.516 1.63885 1.03172 9.3793 0.2991 2.5924 -17.6171 -1.60267 2.82855 4.3461 -1.42109e-14 0 -22.4775 -0.712034 4.97192 2.1666 0 0 -13.4159 -0.337997 2.46962 9.4769 0.8376 0.2947 -17.4632 -4.39496 2.83266 4.772 -1.42109e-14 0 -22.1899 -1.09597 6.04315 2.8722 7.10543e-15 1.42109e-14 -7.15464 -0.014678 3.47221 8.6586 1.0176 -1.7016 -17.81 2.30051 2.82972 4.5461 2.84217e-14 0 -22.7632 -0.6978 3.46492 2.506 7.10543e-15 0 -4.62948 0.0330315 1.77557 7.6901 0.6618 -3.9096 -15.8049 -8.88775 6.91509 3.2119 -1.42109e-14 1.42109e-14 -23.0468 -0.0296877 4.23301 1.924 -1.42109e-14 0 -6.40641 -0.0691621 3.97397 -4.0677 26.6109 -1.1234 0.369799 -0.877934 11.4345 -14.1772 0 0 54.7335 36.4954 -10.4843 -26.1234 0 0 0.833274 1.07835 104.615 -27.7188 0 -1.42109e-14 15.6001 -12.8544 -22.6366 -2.2979 -0.4684 1.8313 -52.5884 66.7177 72.38 -5.2953 0 1.77636e-15 25.5694 -4.98259 -8.39435 -3.0181 0 0 -5.21693 -2.02968 -5.95199 -9.3793 0.2991 2.5924 42.7529 -3.91471 -7.47395 -4.3461 -3.55271e-15 0 47.6694 -4.0177 -9.70014 -2.1666 0 1.42109e-14 26.0767 -1.29503 -5.14398 -9.4769 0.8376 0.2947 42.3868 -6.68733 -7.50778 -4.772 -3.55271e-15 0 46.948 -5.05222 -11.8068 -2.8722 0 1.42109e-14 19.6648 -0.822944 -6.87343 -8.6586 1.0176 -1.7016 43.2609 -0.0398646 -7.45641 -4.5461 3.55271e-15 0 48.3695 -3.03714 -6.75631 -2.506 0 0 17.4765 -0.353735 -3.77041 -7.6901 0.6618 -3.9096 41.772 -11.2668 -7.60379 -3.2119 -3.55271e-15 0 45.5034 -6.43631 -15.2727 -1.924 -1.42109e-14 7.10543e-15 18.5714 -1.04243 -8.37933 8.7379 -0.0029 0.0005 14.2347 -9.51568 25.8639 0 -46.6676 0 2.47797 17.1002 9.73402 0 -40.1476 0 -6.43001 5.04633 9.03292 0 -8.8846 14.2294 0.0001 -4.96962e-17 1.59028e-15 -8.7379 0.0029 -0.0005 -9.01632 1.73694 -23.3981 0 -46.6676 0 -13.0258 20.5798 7.06245 -1.77636e-15 -40.1476 0 17.4315 -13.0633 -6.07775 8.88178e-16 -8.8846 14.2294 -0 -1.49089e-16 -0 
7.02406 93.5084 25.8734 -3.60179 -5.68386 -32.1157 0 7.2397 0 1.14645 2.55177 -2.76661 -3.55271e-15 16.546 0 2.41581 6.9068 -5.80189 -3.55271e-15 34.2149 -1.77636e-15 -3.87877 25.6522 7.9071 3.55271e-15 6.2923 -1.42109e-14 -9.19164 -25.4455 30.3582 4.0639 26.6115 -1.1234 -2.90132 -4.51252 8.43074 14.1772 0 0 -35.1845 30.3039 -40.4399 26.1234 0 -1.77636e-15 -0.595642 0.239204 -43.7596 27.7188 0 0 -119.556 -48.3327 -106.34 2.2979 -0.4685 1.8313 63.0461 58.4407 -87.0163 5.2953 0 0 -1.06908 5.69764 -1.20717 3.0181 0 -7.10543e-15 15.5098 1.63731 1.03468 9.3793 0.2991 2.5924 -17.5994 -1.60181 2.82502 4.3461 -1.42109e-14 0 -22.4525 -0.709856 4.96666 2.1666 0 0 -13.4034 -0.337358 2.46691 9.4769 0.8376 0.2947 -17.4457 -4.39411 2.82912 4.772 0 0 -22.1653 -1.09337 6.03676 2.8722 -7.10543e-15 -1.42109e-14 -7.14226 -0.0142492 3.46881 8.6586 1.0176 -1.7016 -17.792 2.30138 2.8262 4.5461 0 1.42109e-14 -22.7379 -0.696261 3.46127 2.506 0 1.42109e-14 -4.61678 0.033183 1.7736 7.6901 0.6618 -3.9096 -15.7877 -8.88699 6.91149 3.2119 -1.42109e-14 0 -23.0228 -0.0279128 4.22415 1.924 0 0 -6.39434 -0.0686664 3.96957 -4.0677 26.6109 -1.1234 0.498568 -0.850359 11.439 -14.1772 -2.84217e-14 -1.77636e-15 54.463 36.4364 -10.308 -26.1234 1.42109e-14 0 0.83338 1.07786 104.581 -27.7188 0 0 15.7309 -13.0974 -22.5481 -2.2979 -0.4684 1.8313 -52.5884 66.7177 72.3801 -5.2953 1.42109e-14 -3.55271e-15 25.6035 -5.00147 -8.40585 -3.0181 -1.42109e-14 0 -5.19902 -2.03581 -5.95984 -9.3793 0.2991 2.5924 42.7523 -3.91464 -7.47385 -4.3461 0 0 47.6689 -4.01762 -9.70005 -2.1666 0 0 26.0764 -1.29501 -5.14391 -9.4769 0.8376 0.2947 42.3862 -6.68726 -7.50768 -4.772 0 0 46.9474 -5.05212 -11.8067 -2.8722 0 0 19.6645 -0.82292 -6.87335 -8.6586 1.0176 -1.7016 43.2602 -0.0397926 -7.45632 -4.5461 0 0 48.3689 -3.03708 -6.75623 -2.506 0 0 17.4762 -0.353727 -3.77036 -7.6901 0.6618 -3.9096 41.7714 -11.2667 -7.60369 -3.2119 3.55271e-15 0 45.5029 -6.43618 -15.2726 -1.924 -1.42109e-14 7.10543e-15 18.5711 -1.04241 -8.37922 8.7379 -0.0029 0.0005 14.3249 -9.49757 25.8539 0 -46.6676 -7.10543e-15 2.51483 17.4034 9.71779 -3.55271e-15 -40.1476 7.10543e-15 -6.47072 4.88465 9.05689 3.55271e-15 -8.8846 14.2294 0.0001 7.45443e-17 -0 -8.7379 0.0029 -0.0005 -8.97619 1.85671 -23.3554 -3.55271e-15 -46.6676 -3.55271e-15 -13.0416 20.6183 7.09544 -8.88178e-16 -40.1476 -8.88178e-16 17.4467 -13.0937 -6.07064 0 -8.8846 14.2294 0 1.98785e-16 -0 
7.03143 93.4897 25.8906 -3.73391 -5.76632 -32.1642 -3.55271e-15 7.2397 3.55271e-15 1.15317 2.602 -2.779 0 16.546 3.55271e-15 2.41282 7.00717 -5.82618 0 34.2149 0 -3.84755 25.6257 7.89734 0 6.2923 0 -9.19808 -25.4643 30.3493 4.0639 26.6115 -1.1234 -2.85733 -4.5042 8.39388 14.1772 -2.84217e-14 7.10543e-15 -35.3923 30.333 -40.6049 26.1234 2.84217e-14 -1.77636e-15 -0.594629 0.238246 -43.6669 27.7188 0 -3.55271e-15 -121.51 -48.997 -108.796 2.2979 -0.4685 1.8313 63.0366 58.4526 -87.0018 5.2953 0 -2.84217e-14 -1.08255 5.69293 -1.2005 3.0181 0 7.10543e-15 15.5031 1.63563 1.0379 9.3793 0.2991 2.5924 -17.5776 -1.60073 2.82067 4.3461 0 1.42109e-14 -22.4241 -0.707383 4.96068 2.1666 7.10543e-15 1.42109e-14 -13.3891 -0.336624 2.46383 9.4769 0.8376 0.2947 -17.4241 -4.39304 2.82475 4.772 1.42109e-14 0 -22.1373 -1.0904 6.02949 2.8722 2.13163e-14 -1.42109e-14 -7.12818 -0.0137687 3.46493 8.6586 1.0176 -1.7016 -17.7699 2.30248 2.82185 4.5461 -7.10543e-15 0 -22.7091 -0.694519 3.4571 2.506 -7.10543e-15 0 -4.60234 0.0333625 1.77135 7.6901 0.6618 -3.9096 -15.7664 -8.88604 6.90706 3.2119 -1.42109e-14 0 -22.9954 -0.0258992 4.21406 1.924 0 -1.42109e-14 -6.38065 -0.0681023 3.96455 -4.0677 26.6109 -1.1234 0.553813 -0.842112 11.4287 -14.1772 0 0 54.2425 36.3984 -10.0927 -26.1234 0 -7.10543e-15 0.833648 1.07666 104.499 -27.7188 0 1.42109e-14 15.8882 -13.3208 -22.4165 -2.2979 -0.4684 1.8313 -52.5884 66.7177 72.38 -5.2953 -1.42109e-14 0 25.6343 -5.01851 -8.41624 -3.0181 -1.42109e-14 1.77636e-15 -5.18283 -2.0414 -5.9669 -9.3793 0.2991 2.5924 42.7505 -3.91439 -7.47355 -4.3461 -7.10543e-15 0 47.6672 -4.01732 -9.69979 -2.1666 -1.42109e-14 0 26.0756 -1.29493 -5.14375 -9.4769 0.8376 0.2947 42.3844 -6.68701 -7.50738 -4.772 -3.55271e-15 -1.42109e-14 46.9458 -5.05176 -11.8064 -2.8722 1.42109e-14 -1.42109e-14 19.6637 -0.822841 -6.87314 -8.6586 1.0176 -1.7016 43.2584 -0.0395343 -7.45602 -4.5461 7.10543e-15 0 48.3672 -3.03687 -6.75606 -2.506 1.42109e-14 1.42109e-14 17.4754 -0.353688 -3.77023 -7.6901 0.6618 -3.9096 41.7696 -11.2665 -7.60338 -3.2119 -3.55271e-15 0 45.5013 -6.43574 -15.2721 -1.924 -1.42109e-14 7.10543e-15 18.5703 -1.04231 -8.37894 8.7379 -0.0029 0.0005 14.4278 -9.47708 25.8979 0 -46.6676 0 2.56505 17.7038 9.69844 0 -40.1476 -7.10543e-15 -6.50883 4.71881 9.03147 3.55271e-15 -8.8846 14.2294 0.0001 0 1.59028e-15 -8.7379 0.0029 -0.0005 -8.92662 1.97747 -23.3172 3.55271e-15 -46.6676 0 -13.0557 20.6475 7.13825 -1.77636e-15 -40.1476 -2.66454e-15 17.4587 -13.1177 -6.06521 0 -8.8846 14.2294 -9.93923e-17 4.96962e-17 -0 
